<svg width="101" height="29" viewBox="0 0 101 29" fill="none" xmlns="http://www.w3.org/2000/svg">
<path fill-rule="evenodd" clip-rule="evenodd" d="M101 28.2688H0.706055V0H101V28.2688V28.2688Z" fill="black"/>
<path fill-rule="evenodd" clip-rule="evenodd" d="M17.2771 10.8715C19.7698 10.8715 21.249 12.9164 21.249 12.9164L19.2225 14.7164C18.3123 13.118 18.007 12.4109 16.4924 12.2177V16.7673C16.8633 16.8968 17.2517 16.9616 17.6423 16.9593C20.599 16.9593 23.357 12.9224 23.357 12.9224C23.357 12.9224 20.8038 9.26952 16.9124 9.39771C16.7715 9.40252 16.6305 9.40793 16.4924 9.42177V10.9203C16.7458 10.8926 17.0055 10.8715 17.2771 10.8715Z" fill="#C4D64D"/>
<path fill-rule="evenodd" clip-rule="evenodd" d="M16.4924 5.96497V8.20425C16.6334 8.19342 16.7738 8.18439 16.9124 8.18018C22.3235 7.9864 25.8491 12.8586 25.8491 12.8586C25.8491 12.8586 21.8002 18.0497 17.583 18.0497C17.1949 18.0497 16.8337 18.0135 16.4924 17.9504V19.3357C16.7835 19.373 17.0854 19.3977 17.3987 19.3977C21.3249 19.3977 24.1639 17.2836 26.9129 14.7825C27.37 15.167 29.2366 16.1016 29.6195 16.5133C27.0047 18.8194 20.9146 20.6801 17.4614 20.6801C17.1282 20.6801 16.8069 20.6584 16.493 20.6271V22.5734H31.4166V5.96497H16.4924Z" fill="#C4D64D"/>
<path fill-rule="evenodd" clip-rule="evenodd" d="M13.7806 13.5229C13.7806 13.5229 14.967 12.0245 16.4873 12.2182H16.4924V10.9202C13.5968 11.2506 11.854 13.287 11.854 13.287C11.854 13.287 12.8618 17.2685 16.4924 17.9516V16.7678C14.446 16.0415 13.7806 13.5229 13.7806 13.5229V13.5229Z" fill="white"/>
<path fill-rule="evenodd" clip-rule="evenodd" d="M10.0433 13.1162C10.0433 13.1162 12.1958 9.7654 16.4918 9.42118V8.20435C11.7325 8.60815 7.61108 12.8592 7.61108 12.8592C7.61108 12.8592 9.94569 19.9761 16.4918 20.6272V19.3358C11.6885 18.6997 10.0433 13.1162 10.0433 13.1162V13.1162ZM41.4432 17.0598C41.3519 17.25 41.2378 17.4197 41.2378 17.5388C41.2378 17.7296 41.3519 17.8259 41.4877 17.8259C42.0561 17.8259 43.2597 16.2696 43.4183 16.2696C43.5553 16.2696 43.622 16.3647 43.622 16.4598C43.622 16.9623 41.6692 19.1197 40.1256 19.1197C39.7158 19.1197 39.5572 18.9753 39.5572 18.7117C39.5572 18.4716 39.7158 18.0648 39.875 17.682L42.4642 11.8615C42.6456 11.4553 42.6919 11.1435 42.6919 10.904C42.6919 10.5201 42.4858 10.2577 42.1686 10.2577C41.3514 10.2577 40.5564 11.2398 37.945 15.6943C37.4674 16.5091 37.0588 17.2506 36.6262 18.2802C36.4002 18.8086 36.2416 19.1203 35.8764 19.1203C35.4923 19.1203 35.3331 18.9759 35.3331 18.687C35.3331 18.4722 35.4917 18.0889 35.5591 17.8987L37.7162 11.8139C37.8315 11.4781 37.9445 11.1676 37.9445 10.9991C37.9445 10.8089 37.8075 10.6898 37.6043 10.6898C37.012 10.6898 35.9454 12.4609 35.7171 12.4609C35.6932 12.4612 35.6695 12.4565 35.6473 12.4469C35.6252 12.4374 35.605 12.4234 35.5881 12.4055C35.5712 12.3877 35.5579 12.3665 35.5488 12.3431C35.5398 12.3197 35.5354 12.2947 35.5357 12.2695C35.5357 12.0059 35.8084 11.7194 35.9448 11.5034C36.2627 11.0244 37.6038 9.44585 38.4889 9.44585C39.0327 9.44585 39.1914 9.80272 39.1914 10.4496C39.1914 11.3836 37.8303 14.4257 37.8303 14.6887C37.8303 14.7363 37.8526 14.8085 37.8737 14.8085C37.9433 14.8085 38.0323 14.664 38.1476 14.4727C38.5556 13.7788 40.5547 9.44525 42.6662 9.44525C43.529 9.44525 44.0529 9.92428 44.0529 10.7626C44.0529 11.3596 43.7111 12.101 43.4617 12.6528L41.4432 17.0598V17.0598ZM53.5272 10.7638C53.5403 10.7168 53.5563 10.6404 53.5563 10.5796C53.5563 10.1241 52.7904 10.1686 52.3727 10.0489C52.2568 10.0188 52.1707 9.94113 52.1707 9.84966C52.1707 9.60653 52.3288 9.5614 52.4149 9.5614C52.92 9.5614 53.3845 9.62097 53.9318 9.62097C54.3655 9.62097 55.1302 9.5614 55.2751 9.5614C55.4047 9.5614 55.4925 9.68296 55.4925 9.81897C55.4925 9.92669 55.4783 10.0314 55.3767 10.0489C54.5966 10.1692 54.523 10.3371 54.0328 11.5991L51.1446 19.0632C51.1161 19.1384 51.059 19.1835 50.9711 19.1835C50.857 19.1835 50.8125 19.0632 50.7697 18.9705L47.4193 10.4256C47.2886 10.1536 46.9873 10.0916 46.7111 10.0482C46.4514 10.0013 46.2055 9.98627 46.2055 9.74314C46.2055 9.60593 46.4811 9.5608 46.5673 9.5608C47.1163 9.5608 47.6647 9.62037 48.2137 9.62037C48.6753 9.62037 49.153 9.5608 49.6147 9.5608C49.7151 9.5608 50.0318 9.59029 50.0318 9.75758C50.0318 10.0182 49.7282 10.0482 49.4549 10.0482C49.165 10.0482 48.8619 10.0302 48.8619 10.3522C48.8619 10.3973 48.8756 10.443 48.8916 10.4882L50.3639 14.4004C51.1007 16.3671 51.2593 16.5808 51.3015 16.5808C51.374 16.5808 51.5064 16.5639 51.5623 16.4123L53.5272 10.7638V10.7638ZM60.2017 17.936C60.2017 18.3452 60.535 18.4235 60.6931 18.4536C61.1559 18.5438 61.4709 18.5438 61.4709 18.7569C61.4709 18.926 61.2101 18.9398 60.9367 18.9398C60.5624 18.9398 60.2582 18.8796 59.5215 18.8796C58.815 18.8796 58.4115 18.9398 58.0491 18.9398C57.717 18.9398 57.5139 18.8929 57.5139 18.7117C57.5139 18.5149 57.6029 18.5288 58.2517 18.4536C58.5102 18.4229 58.9594 18.3446 58.9594 17.7819V10.6886C58.9594 10.2011 58.8013 10.1241 58.3818 10.0489C57.9618 9.95678 57.8466 9.98687 57.8466 9.77383C57.8466 9.5614 58.064 9.5614 58.2358 9.5614C58.6849 9.5614 58.9143 9.62097 59.5945 9.62097C60.172 9.62097 60.4597 9.5614 60.8928 9.5614C61.2095 9.5614 61.5428 9.5614 61.5428 9.74374C61.5428 10.0188 61.2831 9.97242 60.6052 10.0489C60.2137 10.0922 60.2006 10.5514 60.2006 10.9479V17.936H60.2017V17.936ZM65.5272 18.8802C65.1095 18.8802 64.5753 18.9404 64.2278 18.9404C64.1553 18.9404 63.967 18.9404 63.967 18.7906C63.967 18.6678 64.0686 18.5294 64.5028 18.4542C64.8196 18.3916 65.1528 18.3452 65.1528 17.4636V10.3058C65.1528 10.0188 64.5456 10.0489 64.1696 10.0188C63.8374 9.98747 63.737 9.98747 63.737 9.81897C63.737 9.5614 64.1285 9.5614 64.2986 9.5614H65.6128C66.3204 9.5614 66.9984 9.47052 67.9246 9.47052C70.9571 9.47052 73.4104 11.0514 73.4104 14.7212C73.4104 17.008 71.4165 18.8802 68.9341 18.8802H65.5272V18.8802ZM66.394 16.9755C66.394 18.0443 67.3048 18.5155 68.2419 18.5155C69.3678 18.5155 72.0528 17.5256 72.0528 14.4341C72.0528 11.312 69.3958 9.92729 67.6056 9.92729C66.422 9.92729 66.394 10.2023 66.394 10.4159V16.9755ZM78.3216 17.936C78.3216 18.3452 78.6549 18.4235 78.813 18.4536C79.2746 18.5438 79.5919 18.5438 79.5919 18.7569C79.5919 18.926 79.3323 18.9398 79.0578 18.9398C78.6823 18.9398 78.3793 18.8796 77.6425 18.8796C76.9349 18.8796 76.5326 18.9398 76.1702 18.9398C75.8381 18.9398 75.6343 18.8929 75.6343 18.7117C75.6343 18.5149 75.7234 18.5288 76.3745 18.4536C76.6341 18.4229 77.0787 18.3446 77.0787 17.7819V10.6886C77.0787 10.2011 76.9218 10.1241 76.5023 10.0489C76.0834 9.95678 75.967 9.98687 75.967 9.77383C75.967 9.5614 76.1845 9.5614 76.3585 9.5614C76.8042 9.5614 77.0365 9.62097 77.715 9.62097C78.2914 9.62097 78.5813 9.5614 79.0144 9.5614C79.3323 9.5614 79.6644 9.5614 79.6644 9.74374C79.6644 10.0188 79.4036 9.97242 78.7279 10.0489C78.3353 10.0922 78.321 10.5514 78.321 10.9479V17.936H78.3216V17.936ZM87.5356 15.4777C87.4187 15.0961 87.3616 15.0961 86.178 15.0799C85.1959 15.0672 84.9665 15.1262 84.906 15.2496C84.5596 15.994 83.9204 17.8289 83.9204 17.995C83.9204 18.3013 84.2246 18.4235 84.3416 18.4542C84.7873 18.5763 85.0772 18.6371 85.0772 18.7575C85.0772 18.9404 84.8466 18.9404 84.7439 18.9404C84.3547 18.9404 83.8925 18.8802 83.4742 18.8802C82.9258 18.8802 82.3631 18.9404 81.8695 18.9404C81.757 18.9404 81.6977 18.8935 81.6977 18.7575C81.6977 18.5601 82.0709 18.5902 82.4344 18.4542C82.722 18.3452 82.7957 18.2411 82.867 18.072L86.5096 9.52288C86.523 9.49542 86.5436 9.47252 86.5688 9.45677C86.594 9.44102 86.6229 9.43307 86.6522 9.43382C86.7401 9.43382 86.8115 9.47594 86.8274 9.53913L89.5512 17.3577C89.8275 18.193 90.1173 18.3916 90.3045 18.4536C90.6937 18.5757 90.9665 18.5288 90.9665 18.7569C90.9665 18.9103 90.8529 18.9398 90.6789 18.9398C90.058 18.9398 89.5678 18.8796 89.0045 18.8796C88.4675 18.8796 87.9636 18.9398 87.4004 18.9398C87.2554 18.9398 87.1995 18.8339 87.1995 18.7725C87.1995 18.5896 87.486 18.5444 88.0076 18.4542C88.0932 18.4397 88.3665 18.3163 88.3665 18.057C88.3665 17.9511 88.3106 17.7982 88.2821 17.6772L87.5356 15.4777V15.4777ZM85.2096 14.0598C85.1805 14.1531 85.1251 14.2422 85.1251 14.3342C85.1251 14.4119 86.049 14.4119 86.1637 14.4119C86.2494 14.4119 87.1744 14.4119 87.1744 14.3198C87.1744 14.2422 87.1442 14.1682 87.1019 14.0321L86.3372 11.625C86.3207 11.5937 86.307 11.5329 86.2494 11.5329C86.2203 11.5329 86.1911 11.5636 86.178 11.6087L85.2096 14.0598V14.0598ZM93.3148 18.1882V18.0046H93.4227C93.482 18.0046 93.5608 18.01 93.5608 18.0901C93.5608 18.1731 93.5197 18.1882 93.4529 18.1882H93.3148V18.1882ZM93.3148 18.3175H93.3896L93.5534 18.6335H93.7337L93.5522 18.3037C93.6481 18.2965 93.7251 18.2471 93.7251 18.1063C93.7251 17.933 93.6161 17.8776 93.4307 17.8776H93.163V18.6335H93.3148V18.3175ZM94.0949 18.2574C94.0949 17.8132 93.7805 17.5563 93.4272 17.5563C93.074 17.5563 92.7573 17.8132 92.7573 18.2574C92.7573 18.7009 93.074 18.9591 93.4272 18.9591C93.7805 18.9591 94.0949 18.7009 94.0949 18.2574ZM93.9032 18.2574C93.9032 18.5805 93.6846 18.7966 93.4272 18.7966V18.7954C93.163 18.7966 92.949 18.5805 92.949 18.2568C92.949 17.933 93.163 17.7176 93.4272 17.7176C93.6852 17.7176 93.9032 17.933 93.9032 18.2574V18.2574Z" fill="white"/>
</svg>
